PathFileType	4	(X/Y/Z)	Walk5.trc
DataRate	CameraRate	NumFrames	NumMarkers	Units	OrigDataRate	OrigDataStartFrame	OrigNumFrames
200.000000	200.000000	8	59	mm	200.000000	341	534
Frame#	Times		LBHD		C7		T10		RBack		LPSI		RPSI		RCAR		LElbowM		RElbowM		LUA1		RBHD		RFA1		LLFC		LCAR		RWRR		RFHD		LACR1		RTH3		CLAV		LWRR		RUA1		RTH2		RACR1		LWRU		RTB4		RTH4		RTB3		RToe		RMT1		RWRU		LFA1		RCAL		RMT5		LTH4		LTH1		RElbow		RLFC		RTB1		RTB2		STRN		LElbow		LFHD		LTH2		LTH3		RMMAL		RLMAL		LTB3		LTB2		RASI		LCAL		LMT1		LASI		LLMAL		LTB1		LMT5		RTH1		LTB4		LToe		LMMAL
			X1	Y1	Z1	X2	Y2	Z2	X3	Y3	Z3	X4	Y4	Z4	X5	Y5	Z5	X6	Y6	Z6	X7	Y7	Z7	X8	Y8	Z8	X9	Y9	Z9	X10	Y10	Z10	X11	Y11	Z11	X12	Y12	Z12	X13	Y13	Z13	X14	Y14	Z14	X15	Y15	Z15	X16	Y16	Z16	X17	Y17	Z17	X18	Y18	Z18	X19	Y19	Z19	X20	Y20	Z20	X21	Y21	Z21	X22	Y22	Z22	X23	Y23	Z23	X24	Y24	Z24	X25	Y25	Z25	X26	Y26	Z26	X27	Y27	Z27	X28	Y28	Z28	X29	Y29	Z29	X30	Y30	Z30	X31	Y31	Z31	X32	Y32	Z32	X33	Y33	Z33	X34	Y34	Z34	X35	Y35	Z35	X36	Y36	Z36	X37	Y37	Z37	X38	Y38	Z38	X39	Y39	Z39	X40	Y40	Z40	X41	Y41	Z41	X42	Y42	Z42	X43	Y43	Z43	X44	Y44	Z44	X45	Y45	Z45	X46	Y46	Z46	X47	Y47	Z47	X48	Y48	Z48	X49	Y49	Z49	X50	Y50	Z50	X51	Y51	Z51	X52	Y52	Z52	X53	Y53	Z53	X54	Y54	Z54	X55	Y55	Z55	X56	Y56	Z56	X57	Y57	Z57	X58	Y58	Z58	X59	Y59	Z59

341	1.705	-89.691	1467.6	-100.12	-121.71	1330.6	-36.075	-147.18	1060.2	-37.522	-159.49	1230.3	86.91	-176.93	884.7	-51.52	-169.34	875.45	46.598	-119.41	717.18	297.77	-54.185	934.31	-238.91	-172.72	947.22	155.93	-1.8225	1093.3	-273.48	-93.713	1474.3	23.162	-162.21	857.91	255.57	-144.15	436.06	-158.65	166.72	735.62	-300.1	-80.095	746.8	255.15	86.854	1469.8	2.8441	-27.996	1265.9	-192.38	82.444	537.23	128	3.0701	1251.8	-19.121	148.94	771.8	-251.34	-93.925	1119.5	206.36	110.71	658.79	120.58	-64.528	1267.9	124.27	108.66	759.72	-312.2	188.56	246.04	25.967	49.588	624.16	153.28	213.38	155.69	22.628	355.37	42.38	4.1057	296.5	59.706	0.83638	-154.76	747.95	255.68	43.498	862.27	-311.66	149.05	34.996	55.575	285.77	41.792	54.461	-63.598	624.71	-190.54	-47.488	714.66	-215.29	-145.01	983.28	239.47	128.6	452.2	107.19	174.38	336.89	22.373	173.44	242.26	95.679	67.108	1148.8	-17.043	-19.622	973.97	-297.92	82.128	1461.5	-73.97	0.38225	623.15	-154.47	-86.358	534.49	-168.52	196.22	72.904	-6.938	205.15	66.074	71.381	-279.73	174.44	-54.177	-254.36	261.18	-131.22	61.007	842.82	115.05	-429.46	115.13	-47.359	-288.97	54.639	-35.627	74.478	849.37	-178.14	-375.61	117.04	-91.921	-167.64	317.33	-74.721	-318.19	43.156	-89.905	21.487	705.32	179.25	-230.72	251.12	-64.913	-249.12	25.332	-39.672	-355.45	117.05	-13.584
342	1.71	-83.567	1468.2	-99.416	-115.47	1331.2	-35.322	-140.75	1060.8	-36.942	-153.18	1230.7	87.665	-170.23	884.74	-51.365	-162.7	875.89	46.864	-111.93	717.07	297.83	-48.246	935	-237.98	-165.35	947.26	156.16	4.1074	1093.9	-272.76	-87.58	1475	23.864	-154.78	857.84	255.72	-135.87	436.15	-159.47	171.76	735.63	-300.03	-72.65	746.75	255.2	93.003	1470.6	3.5366	-21.729	1266.5	-191.66	88.852	538.08	128.21	9.3156	1252.5	-18.386	154.29	771.8	-251.16	-86.941	1119.6	206.86	117.86	659.4	119.89	-58.306	1268.4	125.05	113.69	759.86	-311.85	192.11	245.74	25.793	56.909	625.31	153.45	215.72	155.04	22.421	356.13	38.949	3.203	297.44	57.43	0.23858	-147.31	747.89	255.79	48.967	862.7	-311.11	149.6	35.452	55.615	286.53	39.883	54.101	-56.037	625.09	-190.81	-40.403	715.26	-215.19	-137.6	983.2	239.74	134.15	452.42	107.42	179.16	336.78	22.256	177.19	242.12	95.551	73.514	1149.7	-16.24	-13.792	974.54	-297.09	88.256	1462.2	-73.293	8.0249	623.69	-154.86	-78.353	534.71	-169.17	197.31	72.431	-7.0916	206.26	65.591	71.254	-274.73	176.29	-55.042	-248.51	262.91	-131.92	67.585	843.74	115.57	-424.96	120.4	-47.412	-287.34	54.895	-35.612	77.778	849.68	-177.97	-371.75	120.62	-92.292	-160.53	317.48	-75.802	-316.71	44.194	-89.858	29.726	706.74	179.47	-224.61	252.24	-65.844	-249.44	25.24	-39.346	-351.13	120.2	-14.075
343	1.715	-77.424	1469	-98.734	-109.24	1331.9	-34.598	-134.36	1061.4	-36.366	-146.86	1231.2	88.409	-163.56	884.82	-51.281	-156.11	876.41	47.077	-104.31	717.08	297.88	-42.321	935.81	-237	-157.89	947.41	156.36	10.042	1094.6	-272.04	-81.434	1475.7	24.547	-147.23	857.88	255.88	-127.28	436.26	-160.34	176.66	735.67	-299.98	-65.082	746.82	255.21	99.164	1471.4	4.2188	-15.444	1267.2	-190.97	94.977	538.93	128.48	15.548	1253.3	-17.672	159.52	771.84	-251	-79.864	1119.8	207.33	124.87	659.97	119.28	-52.078	1269	125.82	118.59	760.06	-311.52	195.46	245.5	25.646	64.028	626.5	153.67	217.9	154.46	22.248	356.74	35.901	2.3763	298.23	55.413	-0.28685	-139.73	747.96	255.91	54.355	863.21	-310.57	150.08	35.883	55.667	287.15	38.235	53.828	-48.311	625.54	-191.09	-33.219	715.95	-215.1	-130.08	983.25	240.01	139.65	452.73	107.66	183.75	336.71	22.145	180.81	242.05	95.468	79.903	1150.6	-15.446	-7.9919	975.22	-296.25	94.402	1463.1	-72.626	15.817	624.35	-155.25	-70.105	534.98	-169.86	198.25	72.049	-7.2121	207.24	65.19	71.158	-269.37	178.19	-55.974	-242.33	264.73	-132.66	74.078	844.78	116.16	-420.02	125.82	-47.459	-285.56	55.192	-35.58	80.856	849.99	-177.8	-367.54	124.33	-92.665	-153.08	317.66	-76.979	-315.07	45.344	-89.817	37.843	708.22	179.71	-218.16	253.4	-66.85	-249.75	25.147	-39.018	-346.43	123.45	-14.567
344	1.72	-71.266	1469.9	-98.074	-103.01	1332.7	-33.903	-128.02	1062.2	-35.795	-140.54	1231.9	89.141	-156.91	884.92	-51.262	-149.55	877.02	47.237	-96.532	717.21	297.91	-36.411	936.74	-235.98	-150.33	947.68	156.55	15.982	1095.4	-271.32	-75.281	1476.6	25.209	-139.57	858.05	256.02	-118.38	436.39	-161.26	181.43	735.72	-299.96	-57.39	747.03	255.21	105.33	1472.3	4.8886	-9.1435	1268	-190.28	100.84	539.78	128.8	21.765	1254.2	-16.981	164.65	771.9	-250.87	-72.702	1120.1	207.79	131.72	660.51	118.78	-45.846	1269.8	126.56	123.37	760.32	-311.22	198.62	245.28	25.531	70.931	627.71	153.94	219.92	153.93	22.107	357.23	33.239	1.6265	298.89	53.654	-0.73959	-132.03	748.15	256.04	59.665	863.8	-310.03	150.48	36.281	55.728	287.65	36.838	53.639	-40.429	626.06	-191.39	-25.948	716.71	-215.02	-122.45	983.41	240.27	145.09	453.11	107.89	188.14	336.65	22.05	184.29	242.02	95.432	86.27	1151.6	-14.664	-2.222	976	-295.4	100.56	1464	-71.971	23.747	625.14	-155.65	-61.627	535.32	-170.58	199.07	71.748	-7.3013	208.11	64.862	71.089	-263.63	180.15	-56.971	-235.82	266.62	-133.44	80.491	845.92	116.8	-414.62	131.39	-47.502	-283.64	55.55	-35.539	83.726	850.32	-177.62	-362.95	128.16	-93.04	-145.29	317.85	-78.252	-313.26	46.622	-89.788	45.788	709.74	179.98	-211.35	254.61	-67.929	-250.04	25.059	-38.702	-341.34	126.78	-15.057
345	1.725	-65.097	1470.8	-97.435	-96.797	1333.6	-33.237	-121.74	1063.1	-35.231	-134.23	1232.6	89.859	-150.29	885.05	-51.301	-143.02	877.7	47.35	-88.598	717.46	297.93	-30.518	937.78	-234.92	-142.69	948.07	156.73	21.93	1096.2	-270.61	-69.123	1477.5	25.848	-131.79	858.35	256.17	-109.18	436.53	-162.23	186.07	735.79	-299.97	-49.572	747.37	255.18	111.51	1473.3	5.5442	-2.8343	1269	-189.61	106.46	540.63	129.17	27.964	1255.2	-16.314	169.67	772	-250.77	-65.462	1120.5	208.23	138.4	661.02	118.41	-39.612	1270.7	127.27	128.04	760.63	-310.94	201.59	245.1	25.455	77.607	628.91	154.24	221.79	153.46	22	357.62	30.951	0.94977	299.43	52.142	-1.1237	-124.2	748.46	256.18	64.898	864.47	-309.49	150.82	36.642	55.796	288.06	35.678	53.526	-32.406	626.63	-191.7	-18.602	717.53	-214.96	-114.72	983.69	240.52	150.47	453.53	108.12	192.33	336.59	21.985	187.6	242.02	95.443	92.612	1152.7	-13.897	3.5187	976.88	-294.55	106.73	1465	-71.33	31.803	626.04	-156.04	-52.936	535.7	-171.33	199.78	71.519	-7.3612	208.88	64.596	71.044	-257.53	182.15	-58.031	-228.99	268.6	-134.25	86.828	847.16	117.49	-408.78	137.07	-47.542	-281.55	55.991	-35.501	86.403	850.65	-177.45	-358	132.1	-93.415	-137.17	318.07	-79.619	-311.24	48.043	-89.779	53.516	711.25	180.27	-204.19	255.84	-69.076	-250.28	24.987	-38.415	-335.86	130.19	-15.542
346	1.73	-58.92	1471.8	-96.821	-90.603	1334.6	-32.6	-115.49	1064.1	-34.676	-127.92	1233.5	90.563	-143.69	885.21	-51.388	-136.54	878.45	47.421	-80.505	717.84	297.94	-24.646	938.93	-233.83	-134.97	948.58	156.91	27.887	1097.2	-269.9	-62.964	1478.4	26.462	-123.91	858.77	256.32	-99.714	436.68	-163.24	190.58	735.88	-299.99	-41.628	747.85	255.13	117.69	1474.4	6.1837	3.4774	1270	-188.96	111.86	541.46	129.58	34.142	1256.3	-15.672	174.58	772.14	-250.69	-58.155	1121.1	208.64	144.9	661.5	118.17	-33.378	1271.7	127.96	132.59	761	-310.68	204.38	244.93	25.424	84.048	630.08	154.58	223.51	153.04	21.927	357.91	29.019	0.33894	299.87	50.864	-1.4464	-116.24	748.89	256.33	70.058	865.22	-308.96	151.1	36.962	55.871	288.38	34.736	53.479	-24.257	627.26	-192.02	-11.193	718.42	-214.9	-106.91	984.08	240.77	155.78	453.98	108.34	196.32	336.55	21.961	190.74	242.03	95.502	98.924	1153.9	-13.146	9.2309	977.85	-293.69	112.91	1466	-70.704	39.972	627.05	-156.44	-44.052	536.14	-172.1	200.37	71.354	-7.3941	209.55	64.382	71.018	-251.06	184.2	-59.146	-221.85	270.64	-135.09	93.094	848.49	118.24	-402.49	142.84	-47.58	-279.27	56.542	-35.482	88.904	851	-177.27	-352.66	136.14	-93.784	-128.71	318.29	-81.076	-309.02	49.628	-89.8	60.987	712.73	180.59	-196.68	257.09	-70.284	-250.41	24.943	-38.181	-329.99	133.66	-16.018
347	1.735	-52.74	1472.8	-96.231	-84.431	1335.7	-31.99	-109.29	1065.1	-34.132	-121.61	1234.5	91.253	-137.11	885.39	-51.515	-130.09	879.25	47.453	-72.251	718.34	297.92	-18.796	940.18	-232.71	-127.19	949.2	157.08	33.853	1098.3	-269.19	-56.807	1479.5	27.051	-115.93	859.3	256.48	-89.986	436.85	-164.28	194.97	735.98	-300.02	-33.558	748.46	255.05	123.86	1475.5	6.8055	9.7842	1271.1	-188.32	117.07	542.27	130.03	40.298	1257.4	-15.058	179.39	772.31	-250.64	-50.791	1121.7	209.04	151.22	661.96	118.08	-27.146	1272.8	128.61	137.05	761.42	-310.44	206.99	244.78	25.441	90.25	631.23	154.94	225.09	152.65	21.889	358.13	27.417	-0.21412	300.21	49.8	-1.7165	-108.15	749.44	256.49	75.148	866.03	-308.44	151.34	37.239	55.949	288.62	33.986	53.486	-15.999	627.95	-192.34	-3.7364	719.37	-214.86	-99.031	984.59	241.02	160.99	454.44	108.56	200.11	336.5	21.99	193.69	242.04	95.61	105.21	1155.2	-12.415	14.915	978.91	-292.83	119.08	1467.1	-70.096	48.24	628.17	-156.85	-34.996	536.63	-172.9	200.88	71.244	-7.4026	210.13	64.211	71.008	-244.24	186.28	-60.307	-214.4	272.75	-135.95	99.293	849.88	119.02	-395.77	148.67	-47.615	-276.76	57.231	-35.5	91.248	851.35	-177.09	-346.95	140.28	-94.145	-119.95	318.52	-82.615	-306.56	51.395	-89.863	68.172	714.17	180.93	-188.83	258.37	-71.545	-250.41	24.939	-38.026	-323.75	137.18	-16.48
348	1.74	-46.563	1474	-95.667	-78.286	1336.8	-31.405	-103.12	1066.2	-33.604	-115.32	1235.6	91.931	-130.57	885.61	-51.672	-123.67	880.11	47.455	-63.837	718.96	297.89	-12.973	941.53	-231.58	-119.37	949.92	157.25	39.829	1099.4	-268.48	-50.656	1480.6	27.614	-107.86	859.95	256.63	-80.021	437.04	-165.35	199.25	736.1	-300.07	-25.36	749.21	254.94	130.03	1476.6	7.4083	16.078	1272.3	-187.69	122.11	543.07	130.5	46.431	1258.6	-14.471	184.11	772.52	-250.62	-43.379	1122.5	209.42	157.33	662.41	118.15	-20.916	1274	129.22	141.41	761.9	-310.23	209.42	244.63	25.508	96.212	632.32	155.34	226.54	152.31	21.884	358.28	26.116	-0.71652	300.47	48.929	-1.9425	-99.934	750.1	256.66	80.173	866.91	-307.93	151.53	37.475	56.03	288.8	33.405	53.537	-7.6486	628.68	-192.67	3.7541	720.36	-214.81	-91.09	985.21	241.28	166.06	454.88	108.78	203.69	336.45	22.079	196.44	242.05	95.765	111.45	1156.5	-11.707	20.571	980.04	-291.98	125.26	1468.3	-69.507	56.593	629.38	-157.27	-25.789	537.16	-173.71	201.3	71.182	-7.3893	210.63	64.076	71.013	-237.07	188.38	-61.502	-206.63	274.92	-136.83	105.43	851.33	119.84	-388.63	154.54	-47.643	-273.99	58.083	-35.576	93.455	851.71	-176.9	-340.87	144.48	-94.49	-110.88	318.76	-84.225	-303.83	53.367	-89.979	75.047	715.55	181.29	-180.64	259.65	-72.847	-250.19	24.992	-37.982	-317.12	140.74	-16.924
